<?xml version="1.0" encoding="utf-8"?>
<!-- Generator: Adobe Illustrator 18.1.1, SVG Export Plug-In . SVG Version: 6.00 Build 0)  -->
<svg version="1.1" id="Layer_1" xmlns="http://www.w3.org/2000/svg" xmlns:xlink="http://www.w3.org/1999/xlink" x="0px" y="0px"
	 viewBox="-280.5 384 25.2 25.2" enable-background="new -280.5 384 25.2 25.2" xml:space="preserve">
<path fill="#ffffff" d="M-267.8,384c-7,0-12.6,5.6-12.6,12.6c0,7,5.6,12.6,12.6,12.6c7,0,12.6-5.6,12.6-12.6C-255.2,389.7-260.9,384-267.8,384z
	 M-267.8,408.7c-6.7,0-12.1-5.4-12.1-12.1c0-6.7,5.4-12.1,12.1-12.1c6.7,0,12.1,5.4,12.1,12.1C-255.8,403.3-261.2,408.7-267.8,408.7
	z M-267.1,394.9c0.7,0,1.4,0,2.1,0c0,0.6,0,1.3-0.1,1.9c-0.7,0-1.4,0-2,0c0,1.8,0,3.6,0,5.4c-0.7,0-1.4,0-2,0c0-1.8,0-3.6,0-5.4
	c-0.5,0-1,0-1.4,0c0-0.6,0-1.3,0-1.9c0.5,0,1,0,1.4,0c0-0.6,0-1.2,0-1.9c0-0.7,0.4-1.5,1-1.9c0.9-0.6,2.1-0.5,3.1-0.4
	c0.1,0.6,0,1.2,0,1.8c-0.6,0.1-1.4-0.2-1.9,0.3C-267.3,393.5-267.1,394.3-267.1,394.9z"/>
</svg>
