<?xml version="1.0" encoding="utf-8"?>
<!-- Generator: Adobe Illustrator 18.1.1, SVG Export Plug-In . SVG Version: 6.00 Build 0)  -->
<svg version="1.1" id="Layer_1" xmlns="http://www.w3.org/2000/svg" xmlns:xlink="http://www.w3.org/1999/xlink" x="0px" y="0px"
	 viewBox="-280.5 384 25.2 25.2" enable-background="new -280.5 384 25.2 25.2" xml:space="preserve">
<path fill="#ffffff" d="M-267.8,384c-7,0-12.6,5.6-12.6,12.6c0,7,5.6,12.6,12.6,12.6s12.6-5.6,12.6-12.6C-255.2,389.7-260.9,384-267.8,384z
	 M-267.8,408.7c-6.7,0-12.1-5.4-12.1-12.1c0-6.7,5.4-12.1,12.1-12.1s12.1,5.4,12.1,12.1C-255.8,403.3-261.2,408.7-267.8,408.7z
	 M-265.9,396.5C-265.9,396.5-265.9,396.5-265.9,396.5c0.2-0.1,0.3-0.2,0.5-0.3c0.8-0.6,1-1.9,0.5-2.7c-0.3-0.6-1-0.9-1.6-1
	c-0.6-0.1-1.3-0.1-1.9-0.1c-0.9,0-1.9,0-2.8,0c0,3,0,6,0,9c1.2,0,2.5,0,3.7,0c0.8,0,1.6-0.1,2.3-0.6c0.6-0.4,1-1,1.1-1.8
	c0.1-0.6,0-1.3-0.4-1.8C-264.9,396.9-265.4,396.7-265.9,396.5z M-269.1,394.1c0.4,0,0.7,0,1.1,0c0.3,0,0.6,0.1,0.8,0.3
	c0.2,0.3,0.2,0.8,0,1.2c-0.2,0.3-0.6,0.4-1,0.4c-0.3,0-0.6,0-0.9,0C-269.1,395.4-269.1,394.8-269.1,394.1z M-266.7,399.4
	c-0.2,0.3-0.6,0.3-0.9,0.4c-0.5,0-1,0-1.4,0c0-0.8,0-1.5,0-2.3c0.5,0,1,0,1.6,0c0.4,0,0.8,0.2,1,0.6
	C-266.4,398.6-266.4,399.1-266.7,399.4z"/>
</svg>
